<?xml version="1.0" standalone="no"?>
<!DOCTYPE svg PUBLIC "-//W3C//DTD SVG 20010904//EN"
 "http://www.w3.org/TR/2001/REC-SVG-20010904/DTD/svg10.dtd">
<svg version="1.0" xmlns="http://www.w3.org/2000/svg"
 width="600.000000pt" height="600.000000pt" viewBox="0 0 600.000000 600.000000"
 preserveAspectRatio="xMidYMid meet">
<metadata>
Created by potrace 1.14, written by Peter Selinger 2001-2017
</metadata>
<g transform="translate(0.000000,600.000000) scale(0.100000,-0.100000)"
fill="#000000" stroke="none">
<path d="M0 3000 l0 -3000 3000 0 3000 0 0 3000 0 3000 -3000 0 -3000 0 0
-3000z m4080 2730 c0 -27 3 -30 30 -30 27 0 30 3 30 30 l0 30 180 0 180 0 0
-30 0 -30 300 0 300 0 0 -30 0 -30 150 0 150 0 0 -30 0 -30 90 0 90 0 0 -30
c0 -27 -3 -30 -30 -30 -27 0 -30 -3 -30 -30 0 -27 -3 -30 -30 -30 -27 0 -30
-3 -30 -30 0 -27 -3 -30 -30 -30 l-30 0 0 -60 0 -60 -60 0 -60 0 0 -150 0
-150 -30 0 -30 0 0 -180 0 -180 -60 0 -60 0 0 -150 0 -150 -60 0 -60 0 0 -30
c0 -27 -3 -30 -30 -30 l-30 0 0 60 0 60 -30 0 -30 0 0 120 0 120 30 0 30 0 0
120 0 120 30 0 c27 0 30 3 30 30 0 27 3 30 30 30 l30 0 0 180 0 180 -210 0
-210 0 0 30 c0 27 -3 30 -30 30 -27 0 -30 3 -30 30 l0 30 -60 0 -60 0 0 -30 0
-30 -540 0 -540 0 0 -30 0 -30 -270 0 -270 0 0 -30 0 -30 -120 0 -120 0 0 -30
c0 -27 -3 -30 -30 -30 -27 0 -30 -3 -30 -30 l0 -30 -120 0 -120 0 0 -30 0 -30
-90 0 -90 0 0 -30 0 -30 -60 0 -60 0 0 -30 0 -30 -60 0 -60 0 0 -30 c0 -27 -3
-30 -30 -30 -27 0 -30 -3 -30 -30 l0 -30 -120 0 -120 0 0 60 0 60 60 0 60 0 0
60 0 60 60 0 60 0 0 30 c0 27 3 30 30 30 27 0 30 3 30 30 l0 30 60 0 60 0 0
30 0 30 60 0 60 0 0 30 c0 27 3 30 30 30 27 0 30 3 30 30 l0 30 90 0 90 0 0
30 0 30 90 0 90 0 0 30 0 30 60 0 60 0 0 30 0 30 150 0 150 0 0 30 0 30 90 0
90 0 0 30 0 30 180 0 180 0 0 30 0 30 240 0 240 0 0 30 0 30 60 0 60 0 0 -30z
m-660 -720 l0 -30 60 0 60 0 0 -90 0 -90 30 0 c27 0 30 -3 30 -30 0 -27 3 -30
30 -30 27 0 30 -3 30 -30 l0 -30 60 0 60 0 0 -120 0 -120 30 0 30 0 0 -210 0
-210 -90 0 -90 0 0 -30 0 -30 60 0 60 0 0 -90 0 -90 -30 0 c-27 0 -30 -3 -30
-30 l0 -30 150 0 150 0 0 -30 c0 -27 3 -30 30 -30 l30 0 0 -150 0 -150 -30 0
c-27 0 -30 -3 -30 -30 0 -27 -3 -30 -30 -30 -27 0 -30 -3 -30 -30 0 -27 3 -30
30 -30 27 0 30 -3 30 -30 0 -27 3 -30 30 -30 l30 0 0 60 0 60 30 0 c27 0 30 3
30 30 l0 30 60 0 60 0 0 -30 0 -30 -60 0 -60 0 0 -60 0 -60 60 0 60 0 0 -120
0 -120 -60 0 -60 0 0 -30 0 -30 -90 0 -90 0 0 -30 0 -30 -60 0 -60 0 0 -30 c0
-27 -3 -30 -30 -30 -27 0 -30 3 -30 30 l0 30 -60 0 -60 0 0 30 c0 27 -3 30
-30 30 -27 0 -30 3 -30 30 0 27 3 30 30 30 27 0 30 3 30 30 l0 30 -90 0 -90 0
0 -30 0 -30 -60 0 -60 0 0 -30 0 -30 -60 0 -60 0 0 -30 c0 -27 -3 -30 -30 -30
-27 0 -30 -3 -30 -30 l0 -30 -60 0 -60 0 0 -60 0 -60 -210 0 -210 0 0 -30 c0
-27 -3 -30 -30 -30 -27 0 -30 -3 -30 -30 0 -27 -3 -30 -30 -30 l-30 0 0 -90 0
-90 -30 0 c-27 0 -30 3 -30 30 l0 30 -60 0 -60 0 0 -30 c0 -27 -3 -30 -30 -30
l-30 0 0 -60 0 -60 -30 0 c-27 0 -30 -3 -30 -30 0 -27 -3 -30 -30 -30 -27 0
-30 3 -30 30 0 27 3 30 30 30 l30 0 0 60 0 60 30 0 c27 0 30 3 30 30 l0 30
-90 0 -90 0 0 -30 c0 -27 -3 -30 -30 -30 -27 0 -30 -3 -30 -30 0 -27 -3 -30
-30 -30 -27 0 -30 -3 -30 -30 0 -27 -3 -30 -30 -30 -27 0 -30 -3 -30 -30 0
-27 -3 -30 -30 -30 -27 0 -30 -3 -30 -30 0 -27 -3 -30 -30 -30 -27 0 -30 3
-30 30 0 27 3 30 30 30 27 0 30 3 30 30 0 27 3 30 30 30 27 0 30 3 30 30 0 27
3 30 30 30 27 0 30 3 30 30 0 27 3 30 30 30 27 0 30 3 30 30 0 27 -3 30 -30
30 -27 0 -30 3 -30 30 0 27 -3 30 -30 30 -27 0 -30 3 -30 30 0 27 -3 30 -30
30 -27 0 -30 3 -30 30 0 27 -3 30 -30 30 l-30 0 0 180 0 180 -30 0 c-27 0 -30
-3 -30 -30 l0 -30 -90 0 -90 0 0 -30 c0 -27 -3 -30 -30 -30 -27 0 -30 3 -30
30 0 27 3 30 30 30 l30 0 0 90 0 90 -30 0 -30 0 0 90 0 90 30 0 c27 0 30 3 30
30 0 27 3 30 30 30 27 0 30 3 30 30 0 27 -3 30 -30 30 -27 0 -30 3 -30 30 l0
30 90 0 90 0 0 30 c0 27 3 30 30 30 27 0 30 3 30 30 l0 30 90 0 90 0 0 60 0
60 30 0 c27 0 30 3 30 30 l0 30 150 0 150 0 0 270 0 270 30 0 30 0 0 60 0 60
30 0 c27 0 30 3 30 30 l0 30 90 0 90 0 0 60 0 60 30 0 c27 0 30 3 30 30 0 27
3 30 30 30 27 0 30 3 30 30 l0 30 90 0 90 0 0 30 c0 27 3 30 30 30 27 0 30 3
30 30 l0 30 60 0 60 0 0 30 c0 27 3 30 30 30 27 0 30 3 30 30 l0 30 60 0 60 0
0 30 c0 27 3 30 30 30 27 0 30 3 30 30 0 27 3 30 30 30 27 0 30 -3 30 -30z
m1380 -720 c0 -27 3 -30 30 -30 27 0 30 -3 30 -30 l0 -30 120 0 120 0 0 -210
0 -210 -60 0 -60 0 0 -30 0 -30 -60 0 -60 0 0 -30 0 -30 90 0 90 0 0 30 c0 27
3 30 30 30 l30 0 0 -150 0 -150 -60 0 -60 0 0 -30 c0 -27 -3 -30 -30 -30 -27
0 -30 -3 -30 -30 l0 -30 -60 0 -60 0 0 -60 0 -60 60 0 60 0 0 -30 0 -30 -60 0
-60 0 0 -30 0 -30 -150 0 -150 0 0 -30 0 -30 60 0 60 0 0 -30 0 -30 -60 0 -60
0 0 30 c0 27 -3 30 -30 30 l-30 0 0 120 0 120 30 0 c27 0 30 3 30 30 0 27 3
30 30 30 27 0 30 3 30 30 l0 30 -60 0 -60 0 0 30 0 30 60 0 60 0 0 180 0 180
-90 0 -90 0 0 60 0 60 30 0 c27 0 30 3 30 30 l0 30 -60 0 -60 0 0 30 c0 27 -3
30 -30 30 -27 0 -30 3 -30 30 l0 30 -60 0 -60 0 0 30 0 30 90 0 90 0 0 -30 c0
-27 3 -30 30 -30 27 0 30 -3 30 -30 0 -27 3 -30 30 -30 l30 0 0 60 0 60 30 0
c27 0 30 3 30 30 0 27 3 30 30 30 27 0 30 3 30 30 l0 30 -60 0 -60 0 0 -30 c0
-27 -3 -30 -30 -30 -27 0 -30 3 -30 30 0 27 3 30 30 30 27 0 30 3 30 30 l0 30
180 0 180 0 0 -30z m-660 -360 l0 -90 -90 0 -90 0 0 90 0 90 90 0 90 0 0 -90z
m180 -180 c0 -27 -3 -30 -30 -30 -27 0 -30 3 -30 30 0 27 3 30 30 30 27 0 30
-3 30 -30z m60 -1020 c0 -27 3 -30 30 -30 l30 0 0 -90 0 -90 -30 0 c-27 0 -30
-3 -30 -30 l0 -30 -90 0 -90 0 0 30 c0 27 -3 30 -30 30 l-30 0 0 90 0 90 30 0
c27 0 30 3 30 30 l0 30 90 0 90 0 0 -30z m-720 -60 c0 -27 3 -30 30 -30 l30 0
0 -90 0 -90 -30 0 c-27 0 -30 -3 -30 -30 l0 -30 -90 0 -90 0 0 30 c0 27 -3 30
-30 30 l-30 0 0 90 0 90 30 0 c27 0 30 3 30 30 l0 30 90 0 90 0 0 -30z m-660
-300 c0 -27 3 -30 30 -30 l30 0 0 -90 0 -90 -30 0 c-27 0 -30 -3 -30 -30 l0
-30 -90 0 -90 0 0 30 c0 27 -3 30 -30 30 l-30 0 0 90 0 90 30 0 c27 0 30 3 30
30 l0 30 90 0 90 0 0 -30z m300 0 c0 -27 3 -30 30 -30 27 0 30 -3 30 -30 0
-27 3 -30 30 -30 27 0 30 -3 30 -30 0 -27 -3 -30 -30 -30 -27 0 -30 3 -30 30
0 27 -3 30 -30 30 -27 0 -30 3 -30 30 0 27 -3 30 -30 30 -27 0 -30 3 -30 30 0
27 3 30 30 30 27 0 30 -3 30 -30z m780 0 c0 -27 3 -30 30 -30 l30 0 0 -90 0
-90 -30 0 c-27 0 -30 -3 -30 -30 l0 -30 -90 0 -90 0 0 -30 c0 -27 3 -30 30
-30 l30 0 0 -90 0 -90 -30 0 c-27 0 -30 -3 -30 -30 l0 -30 -90 0 -90 0 0 30
c0 27 -3 30 -30 30 l-30 0 0 90 0 90 30 0 c27 0 30 3 30 30 l0 30 90 0 90 0 0
30 c0 27 -3 30 -30 30 l-30 0 0 90 0 90 30 0 c27 0 30 3 30 30 l0 30 90 0 90
0 0 -30z m360 -120 c0 -27 -3 -30 -30 -30 -27 0 -30 -3 -30 -30 0 -27 -3 -30
-30 -30 l-30 0 0 -60 0 -60 -60 0 -60 0 0 30 c0 27 3 30 30 30 27 0 30 3 30
30 0 27 3 30 30 30 l30 0 0 60 0 60 60 0 60 0 0 -30z m-1740 -120 c0 -27 -3
-30 -30 -30 -27 0 -30 -3 -30 -30 0 -27 -3 -30 -30 -30 -27 0 -30 -3 -30 -30
0 -27 -3 -30 -30 -30 -27 0 -30 -3 -30 -30 0 -27 -3 -30 -30 -30 l-30 0 0 -60
0 -60 30 0 30 0 0 -60 0 -60 30 0 c27 0 30 -3 30 -30 0 -27 3 -30 30 -30 l30
0 0 -60 0 -60 30 0 c27 0 30 -3 30 -30 0 -27 -3 -30 -30 -30 -27 0 -30 3 -30
30 0 27 -3 30 -30 30 l-30 0 0 60 0 60 -30 0 c-27 0 -30 3 -30 30 0 27 -3 30
-30 30 l-30 0 0 60 0 60 -30 0 -30 0 0 60 0 60 30 0 c27 0 30 3 30 30 0 27 3
30 30 30 27 0 30 3 30 30 0 27 3 30 30 30 27 0 30 3 30 30 0 27 3 30 30 30 27
0 30 3 30 30 0 27 3 30 30 30 27 0 30 -3 30 -30z m600 -60 c0 -27 -3 -30 -30
-30 -27 0 -30 -3 -30 -30 0 -27 -3 -30 -30 -30 -27 0 -30 -3 -30 -30 0 -27 -3
-30 -30 -30 -27 0 -30 -3 -30 -30 0 -27 -3 -30 -30 -30 -27 0 -30 3 -30 30 0
27 3 30 30 30 27 0 30 3 30 30 0 27 3 30 30 30 27 0 30 3 30 30 0 27 3 30 30
30 27 0 30 3 30 30 0 27 3 30 30 30 27 0 30 -3 30 -30z m180 -30 l0 -60 -30 0
-30 0 0 -60 0 -60 -30 0 -30 0 0 -60 0 -60 -30 0 -30 0 0 60 0 60 30 0 30 0 0
60 0 60 30 0 30 0 0 60 0 60 30 0 30 0 0 -60z m-1440 -30 c0 -27 3 -30 30 -30
27 0 30 -3 30 -30 0 -27 3 -30 30 -30 27 0 30 3 30 30 0 27 3 30 30 30 27 0
30 -3 30 -30 0 -27 -3 -30 -30 -30 -27 0 -30 -3 -30 -30 0 -27 -3 -30 -30 -30
-27 0 -30 -3 -30 -30 0 -27 -3 -30 -30 -30 -27 0 -30 -3 -30 -30 0 -27 -3 -30
-30 -30 l-30 0 0 -60 0 -60 60 0 60 0 0 -30 c0 -27 3 -30 30 -30 27 0 30 -3
30 -30 0 -27 -3 -30 -30 -30 -27 0 -30 3 -30 30 l0 30 -60 0 -60 0 0 30 c0 27
-3 30 -30 30 l-30 0 0 60 0 60 -30 0 c-27 0 -30 3 -30 30 0 27 -3 30 -30 30
l-30 0 0 90 0 90 30 0 c27 0 30 3 30 30 l0 30 90 0 90 0 0 -30z m1020 0 c0
-27 -3 -30 -30 -30 -27 0 -30 -3 -30 -30 0 -27 -3 -30 -30 -30 -27 0 -30 -3
-30 -30 0 -27 -3 -30 -30 -30 -27 0 -30 -3 -30 -30 0 -27 -3 -30 -30 -30 -27
0 -30 -3 -30 -30 0 -27 -3 -30 -30 -30 -27 0 -30 3 -30 30 0 27 3 30 30 30 27
0 30 3 30 30 0 27 3 30 30 30 27 0 30 3 30 30 0 27 3 30 30 30 27 0 30 3 30
30 0 27 3 30 30 30 27 0 30 3 30 30 0 27 3 30 30 30 27 0 30 -3 30 -30z
m-1380 -60 c0 -27 3 -30 30 -30 l30 0 0 -90 0 -90 -30 0 c-27 0 -30 -3 -30
-30 l0 -30 -90 0 -90 0 0 30 c0 27 -3 30 -30 30 l-30 0 0 90 0 90 30 0 c27 0
30 3 30 30 l0 30 90 0 90 0 0 -30z m2520 -30 l0 -60 -30 0 -30 0 0 -60 0 -60
-30 0 c-27 0 -30 -3 -30 -30 0 -27 -3 -30 -30 -30 l-30 0 0 60 0 60 30 0 30 0
0 60 0 60 30 0 c27 0 30 3 30 30 0 27 3 30 30 30 l30 0 0 -60z m-420 -330 c0
-27 3 -30 30 -30 l30 0 0 -90 0 -90 -30 0 c-27 0 -30 -3 -30 -30 l0 -30 -90 0
-90 0 0 30 c0 27 -3 30 -30 30 l-30 0 0 90 0 90 30 0 c27 0 30 3 30 30 l0 30
90 0 90 0 0 -30z m360 0 c0 -27 -3 -30 -30 -30 -27 0 -30 -3 -30 -30 l0 -30
-60 0 -60 0 0 30 0 30 60 0 60 0 0 30 c0 27 3 30 30 30 27 0 30 -3 30 -30z
m-960 -60 c0 -27 3 -30 30 -30 l30 0 0 -90 0 -90 -30 0 c-27 0 -30 -3 -30 -30
l0 -30 -90 0 -90 0 0 30 c0 27 -3 30 -30 30 -27 0 -30 -3 -30 -30 0 -27 -3
-30 -30 -30 -27 0 -30 -3 -30 -30 0 -27 -3 -30 -30 -30 -27 0 -30 3 -30 30 0
27 3 30 30 30 l30 0 0 60 0 60 30 0 30 0 0 60 0 60 30 0 c27 0 30 3 30 30 l0
30 90 0 90 0 0 -30z m-1440 -60 c0 -27 3 -30 30 -30 l30 0 0 -90 0 -90 -30 0
c-27 0 -30 -3 -30 -30 l0 -30 -90 0 -90 0 0 30 c0 27 -3 30 -30 30 l-30 0 0
90 0 90 30 0 c27 0 30 3 30 30 l0 30 90 0 90 0 0 -30z m540 0 c0 -27 -3 -30
-30 -30 -27 0 -30 -3 -30 -30 l0 -30 -60 0 -60 0 0 -30 c0 -27 -3 -30 -30 -30
-27 0 -30 -3 -30 -30 0 -27 -3 -30 -30 -30 -27 0 -30 3 -30 30 0 27 3 30 30
30 27 0 30 3 30 30 0 27 3 30 30 30 27 0 30 3 30 30 l0 30 60 0 60 0 0 30 c0
27 3 30 30 30 27 0 30 -3 30 -30z m120 -90 l0 -120 -30 0 -30 0 0 120 0 120
30 0 30 0 0 -120z m1080 90 c0 -27 -3 -30 -30 -30 l-30 0 0 -60 0 -60 -30 0
c-27 0 -30 -3 -30 -30 0 -27 -3 -30 -30 -30 -27 0 -30 3 -30 30 0 27 3 30 30
30 l30 0 0 60 0 60 30 0 c27 0 30 3 30 30 0 27 3 30 30 30 27 0 30 -3 30 -30z
m660 -60 c0 -27 -3 -30 -30 -30 -27 0 -30 -3 -30 -30 l0 -30 -60 0 -60 0 0
-30 c0 -27 -3 -30 -30 -30 -27 0 -30 3 -30 30 0 27 3 30 30 30 27 0 30 3 30
30 l0 30 60 0 60 0 0 30 c0 27 3 30 30 30 27 0 30 -3 30 -30z m-2820 -180 l0
-30 60 0 60 0 0 -30 c0 -27 3 -30 30 -30 27 0 30 -3 30 -30 0 -27 -3 -30 -30
-30 -27 0 -30 3 -30 30 l0 30 -60 0 -60 0 0 30 c0 27 -3 30 -30 30 -27 0 -30
3 -30 30 0 27 3 30 30 30 27 0 30 -3 30 -30z m2820 -60 l0 -30 -120 0 -120 0
0 30 0 30 120 0 120 0 0 -30z m-2040 -60 c0 -27 3 -30 30 -30 l30 0 0 -90 0
-90 -30 0 c-27 0 -30 -3 -30 -30 l0 -30 -90 0 -90 0 0 30 c0 27 -3 30 -30 30
l-30 0 0 90 0 90 30 0 c27 0 30 3 30 30 l0 30 90 0 90 0 0 -30z m1380 -30 l0
-60 -30 0 -30 0 0 -60 0 -60 -30 0 c-27 0 -30 -3 -30 -30 0 -27 -3 -30 -30
-30 -27 0 -30 3 -30 30 0 27 3 30 30 30 l30 0 0 60 0 60 30 0 30 0 0 60 0 60
30 0 30 0 0 -60z m-2160 -30 c0 -27 3 -30 30 -30 27 0 30 -3 30 -30 0 -27 3
-30 30 -30 27 0 30 -3 30 -30 0 -27 3 -30 30 -30 27 0 30 -3 30 -30 0 -27 -3
-30 -30 -30 -27 0 -30 3 -30 30 0 27 -3 30 -30 30 -27 0 -30 3 -30 30 0 27 -3
30 -30 30 -27 0 -30 3 -30 30 0 27 -3 30 -30 30 -27 0 -30 3 -30 30 0 27 3 30
30 30 27 0 30 -3 30 -30z m1740 0 c0 -27 3 -30 30 -30 l30 0 0 -90 0 -90 -30
0 c-27 0 -30 -3 -30 -30 l0 -30 -90 0 -90 0 0 30 c0 27 -3 30 -30 30 l-30 0 0
90 0 90 30 0 c27 0 30 3 30 30 l0 30 90 0 90 0 0 -30z m780 0 l0 -30 60 0 60
0 0 -30 c0 -27 3 -30 30 -30 27 0 30 -3 30 -30 0 -27 -3 -30 -30 -30 -27 0
-30 3 -30 30 l0 30 -60 0 -60 0 0 30 c0 27 -3 30 -30 30 -27 0 -30 3 -30 30 0
27 3 30 30 30 27 0 30 -3 30 -30z m-2040 -60 c0 -27 -3 -30 -30 -30 -27 0 -30
-3 -30 -30 0 -27 -3 -30 -30 -30 -27 0 -30 -3 -30 -30 0 -27 -3 -30 -30 -30
-27 0 -30 -3 -30 -30 0 -27 -3 -30 -30 -30 -27 0 -30 3 -30 30 0 27 3 30 30
30 27 0 30 3 30 30 0 27 3 30 30 30 27 0 30 3 30 30 0 27 3 30 30 30 27 0 30
3 30 30 0 27 3 30 30 30 27 0 30 -3 30 -30z m-480 -180 c0 -27 3 -30 30 -30
27 0 30 -3 30 -30 0 -27 3 -30 30 -30 27 0 30 -3 30 -30 0 -27 -3 -30 -30 -30
-27 0 -30 3 -30 30 0 27 -3 30 -30 30 -27 0 -30 3 -30 30 0 27 -3 30 -30 30
-27 0 -30 3 -30 30 0 27 3 30 30 30 27 0 30 -3 30 -30z"/>
<path d="M2100 5130 c0 -27 3 -30 30 -30 27 0 30 3 30 30 0 27 -3 30 -30 30
-27 0 -30 -3 -30 -30z"/>
<path d="M1920 5070 c0 -27 3 -30 30 -30 27 0 30 3 30 30 0 27 -3 30 -30 30
-27 0 -30 -3 -30 -30z"/>
<path d="M3120 4710 c0 -27 -3 -30 -30 -30 -27 0 -30 -3 -30 -30 0 -27 3 -30
30 -30 27 0 30 3 30 30 0 27 3 30 30 30 27 0 30 3 30 30 0 27 -3 30 -30 30
-27 0 -30 -3 -30 -30z"/>
<path d="M3240 4680 l0 -60 -30 0 c-27 0 -30 -3 -30 -30 l0 -30 -60 0 -60 0 0
-30 0 -30 60 0 60 0 0 -60 0 -60 -120 0 -120 0 0 30 0 30 -60 0 -60 0 0 30 c0
27 3 30 30 30 27 0 30 3 30 30 0 27 3 30 30 30 27 0 30 -3 30 -30 0 -27 3 -30
30 -30 27 0 30 3 30 30 0 27 -3 30 -30 30 -27 0 -30 3 -30 30 0 27 -3 30 -30
30 -27 0 -30 -3 -30 -30 0 -27 -3 -30 -30 -30 -27 0 -30 -3 -30 -30 0 -27 -3
-30 -30 -30 -27 0 -30 -3 -30 -30 0 -27 3 -30 30 -30 l30 0 0 -60 0 -60 -60 0
-60 0 0 -30 0 -30 60 0 60 0 0 -60 0 -60 30 0 c27 0 30 -3 30 -30 0 -27 3 -30
30 -30 27 0 30 -3 30 -30 l0 -30 -60 0 -60 0 0 -30 0 -30 -60 0 -60 0 0 -30
c0 -27 -3 -30 -30 -30 -27 0 -30 -3 -30 -30 l0 -30 -60 0 -60 0 0 -30 c0 -27
-3 -30 -30 -30 -27 0 -30 -3 -30 -30 0 -27 -3 -30 -30 -30 -27 0 -30 -3 -30
-30 l0 -30 60 0 60 0 0 30 0 30 60 0 60 0 0 30 c0 27 3 30 30 30 27 0 30 3 30
30 l0 30 60 0 60 0 0 30 0 30 60 0 60 0 0 60 0 60 210 0 210 0 0 -90 0 -90 60
0 60 0 0 -30 0 -30 -60 0 -60 0 0 -30 0 -30 60 0 60 0 0 30 c0 27 3 30 30 30
27 0 30 3 30 30 l0 30 60 0 60 0 0 30 0 30 -60 0 -60 0 0 -30 c0 -27 -3 -30
-30 -30 -27 0 -30 3 -30 30 0 27 -3 30 -30 30 l-30 0 0 150 0 150 90 0 90 0 0
30 0 30 -60 0 -60 0 0 30 0 30 60 0 60 0 0 60 0 60 -30 0 c-27 0 -30 -3 -30
-30 l0 -30 -120 0 -120 0 0 30 0 30 60 0 60 0 0 120 0 120 -60 0 -60 0 0 30
c0 27 -3 30 -30 30 l-30 0 0 -60z m120 -390 l0 -30 -90 0 -90 0 0 30 0 30 90
0 90 0 0 -30z"/>
<path d="M2520 4350 c0 -27 3 -30 30 -30 27 0 30 3 30 30 0 27 -3 30 -30 30
-27 0 -30 -3 -30 -30z"/>
<path d="M2400 4230 l0 -30 60 0 60 0 0 30 0 30 -60 0 -60 0 0 -30z"/>
<path d="M3480 4110 c0 -27 3 -30 30 -30 27 0 30 3 30 30 0 27 -3 30 -30 30
-27 0 -30 -3 -30 -30z"/>
<path d="M3720 4110 c0 -27 3 -30 30 -30 27 0 30 3 30 30 0 27 -3 30 -30 30
-27 0 -30 -3 -30 -30z"/>
<path d="M3480 3990 c0 -27 3 -30 30 -30 27 0 30 3 30 30 0 27 -3 30 -30 30
-27 0 -30 -3 -30 -30z"/>
<path d="M3240 3660 l0 -60 30 0 30 0 0 60 0 60 -30 0 -30 0 0 -60z"/>
<path d="M3660 3690 c0 -27 3 -30 30 -30 27 0 30 3 30 30 0 27 -3 30 -30 30
-27 0 -30 -3 -30 -30z"/>
<path d="M4080 3150 c0 -27 3 -30 30 -30 27 0 30 3 30 30 0 27 -3 30 -30 30
-27 0 -30 -3 -30 -30z"/>
<path d="M3660 3030 l0 -30 60 0 60 0 0 30 0 30 -60 0 -60 0 0 -30z"/>
<path d="M3660 2910 l0 -30 60 0 60 0 0 30 0 30 -60 0 -60 0 0 -30z"/>
<path d="M4680 4080 l0 -60 -90 0 -90 0 0 -60 0 -60 -30 0 c-27 0 -30 -3 -30
-30 l0 -30 60 0 60 0 0 -30 c0 -27 3 -30 30 -30 27 0 30 3 30 30 0 27 3 30 30
30 27 0 30 3 30 30 0 27 -3 30 -30 30 -27 0 -30 3 -30 30 0 27 3 30 30 30 27
0 30 3 30 30 l0 30 60 0 60 0 0 30 c0 27 -3 30 -30 30 -27 0 -30 3 -30 30 0
27 -3 30 -30 30 l-30 0 0 -60z"/>
<path d="M4500 3150 l0 -30 60 0 60 0 0 30 0 30 -60 0 -60 0 0 -30z"/>
<path d="M4680 3150 l0 -30 60 0 60 0 0 30 0 30 -60 0 -60 0 0 -30z"/>
<path d="M4200 2610 l0 -90 90 0 90 0 0 90 0 90 -90 0 -90 0 0 -90z"/>
<path d="M3480 2550 l0 -90 90 0 90 0 0 90 0 90 -90 0 -90 0 0 -90z"/>
<path d="M2820 2250 l0 -90 90 0 90 0 0 90 0 90 -90 0 -90 0 0 -90z"/>
<path d="M3900 2250 l0 -90 90 0 90 0 0 90 0 90 -90 0 -90 0 0 -90z"/>
<path d="M3720 1950 l0 -90 90 0 90 0 0 90 0 90 -90 0 -90 0 0 -90z"/>
<path d="M1860 1890 l0 -90 90 0 90 0 0 90 0 90 -90 0 -90 0 0 -90z"/>
<path d="M1500 1830 l0 -90 90 0 90 0 0 90 0 90 -90 0 -90 0 0 -90z"/>
<path d="M3600 1470 l0 -90 90 0 90 0 0 90 0 90 -90 0 -90 0 0 -90z"/>
<path d="M3000 1410 l0 -90 90 0 90 0 0 90 0 90 -90 0 -90 0 0 -90z"/>
<path d="M1560 1350 l0 -90 90 0 90 0 0 90 0 90 -90 0 -90 0 0 -90z"/>
<path d="M1920 990 l0 -90 90 0 90 0 0 90 0 90 -90 0 -90 0 0 -90z"/>
<path d="M2880 930 l0 -90 90 0 90 0 0 90 0 90 -90 0 -90 0 0 -90z"/>
</g>
</svg>
